<?xml version="1.0" encoding="UTF-8"?>
<svg id="Layer_2" data-name="Layer 2" xmlns="http://www.w3.org/2000/svg" viewBox="0 0 336.13 73.8">
  <defs>
    <style>
      .cls-1 {
        fill: #054d36;
      }

      .cls-2 {
        fill: #009876;
      }

      .cls-3 {
        fill: #f05f51;
      }

      .cls-4 {
        fill: #fff;
      }

      .cls-5 {
        fill: #fde152;
      }

      .cls-6 {
        fill: #074d36;
      }

      .cls-7 {
        fill: #1d1c1a;
      }
    </style>
  </defs>
  <g id="Layer_1-2" data-name="Layer 1">
    <g>
      <g>
        <path class="cls-7" d="M116.83,1V34.9h-.6l-9.3-29.9c-.7-2.4-2.9-4.1-5.4-4.1h-10.7V44.5h8.9V10.7h.6l10.9,33.9h14.6V1h-9Z"/>
        <path class="cls-7" d="M146.83,8.7h16.7V1h-17.7c-5.8,0-10.5,4.7-10.5,10.5v22.6c0,5.8,4.7,10.5,10.5,10.5h17.7v-7.7h-16.7c-2.1,0-3.7-1.7-3.7-3.7v-6.7h16.5v-7.6h-16.5v-6.5c-.1-2.1,1.6-3.7,3.7-3.7Z"/>
        <path class="cls-7" d="M186.83,1h-16V44.6h8.8v-12.7h7.2c5.1,0,9-1.4,11.6-4.1,2.6-2.7,3.9-6.6,3.9-11.7,0-10.1-5.2-15.1-15.5-15.1Zm-.1,23.3h-7.1V8.5h7.1c2.3,0,3.9,.6,5,1.8,1.1,1.2,1.6,3.1,1.6,5.8,0,5.5-2.2,8.2-6.6,8.2Z"/>
        <path class="cls-7" d="M204.63,1v7.8h11.7V44.6h8.9V8.8h11.6V1h-32.2Z"/>
        <path class="cls-7" d="M242.33,1V44.6h8.9V1h-8.9Z"/>
        <path class="cls-7" d="M286.83,1V34.9h-.6l-9.3-29.9c-.7-2.4-2.9-4.1-5.4-4.1h-10.7V44.5h8.9V10.7h.6l10.9,33.9h14.6V1h-9Z"/>
        <path class="cls-7" d="M327.33,37.4l-5.3,.2c-3.9,0-6.5-1-7.7-3s-1.9-5.5-1.9-10.5,.3-8.6,.9-10.7,1.6-3.5,2.9-4.3,3.6-1.2,6.9-1.2,7.5,.3,12.6,.8l.3-6.9-2.3-.4c-4.6-.9-8.9-1.4-12.9-1.4-6.4,0-10.9,1.8-13.5,5.3s-4,9.2-4,17.1,1.3,13.7,3.8,17.3c2.6,3.6,7.2,5.4,14,5.4,3.8,0,8.8-.5,14.9-1.5V21.2h-8.7v16.2h0Z"/>
      </g>
      <g>
        <path class="cls-2" d="M92.23,67.4v-13h-1.5v14.4h8.9v-1.4h-7.4Z"/>
        <path class="cls-2" d="M109.63,63.6c0-3-1.5-4.8-4.1-4.8s-4.1,1.9-4.1,5.1c0,3.5,1.7,5.1,4.3,5.1,1.7,0,2.6-.5,3.6-1.5l-1-.9c-.8,.8-1.5,1.1-2.6,1.1-1.9,0-2.9-1.2-2.9-3.4h6.7v-.7h.1Zm-6.7-.4c0-.8,.1-1.1,.3-1.7,.4-.9,1.2-1.5,2.3-1.5s1.9,.6,2.3,1.5c.2,.5,.3,.9,.3,1.7h-5.2Z"/>
        <path class="cls-2" d="M124.33,59.7c-.5-.5-1.4-.9-2.4-.9-1.1,0-2,.3-2.8,1.3v-1.2h-1.4v14.3h1.4v-5.6c.8,1,1.7,1.3,2.8,1.3,1,0,1.9-.3,2.4-.9,1-1,1.2-2.6,1.2-4.2,0-1.5-.2-3.2-1.2-4.1Zm-2.7,7.9c-2.2,0-2.5-1.8-2.5-3.8s.3-3.8,2.5-3.8,2.5,1.9,2.5,3.8c0,2-.3,3.8-2.5,3.8Z"/>
        <path class="cls-2" d="M131.83,58.8c-1.6,0-2.6,.3-3.5,1.5l1,.9c.6-.8,1.2-1.1,2.5-1.1,1.8,0,2.5,.8,2.5,2.2v.9h-3c-2.2,0-3.4,1.1-3.4,2.9,0,.8,.2,1.5,.7,2,.7,.7,1.4,.9,2.8,.9,1.3,0,2.1-.3,2.9-1.1v.9h1.5v-6.7c-.1-2.1-1.4-3.3-4-3.3Zm2.5,6.5c0,.8-.2,1.4-.5,1.7-.6,.6-1.4,.7-2.2,.7-1.6,0-2.3-.5-2.3-1.7s.7-1.8,2.2-1.8h2.8v1.1Z"/>
        <path class="cls-2" d="M139.23,54.5v1.6h1.6v-1.6h-1.6Zm0,4.4v9.9h1.5v-9.9h-1.5Z"/>
        <path class="cls-2" d="M151.93,63.6c0-3-1.5-4.8-4.1-4.8s-4.1,1.9-4.1,5.1c0,3.5,1.7,5.1,4.3,5.1,1.7,0,2.6-.5,3.6-1.5l-1-.9c-.8,.8-1.5,1.1-2.6,1.1-1.9,0-2.9-1.2-2.9-3.4h6.7v-.7h.1Zm-6.7-.4c0-.8,.1-1.1,.3-1.7,.4-.9,1.2-1.5,2.3-1.5s1.9,.6,2.3,1.5c.2,.5,.3,.9,.3,1.7h-5.2Z"/>
        <path class="cls-2" d="M168.13,59.7c-.6-.6-1.5-.9-2.6-.9-1.4,0-2.5,.6-3.3,1.6-.6-1.1-1.7-1.6-3-1.6-1.1,0-2.1,.4-2.8,1.2v-1.1h-1.5v9.9h1.5v-6.1c0-1.7,1-2.6,2.5-2.6s2.4,.9,2.4,2.6v6.1h1.5v-6.3c0-1.6,1-2.5,2.5-2.5s2.4,.9,2.4,2.6v6.2h1.5v-6.3c0-1.2-.4-2.1-1.1-2.8Z"/>
        <path class="cls-2" d="M180.33,63.6c0-3-1.5-4.8-4.1-4.8s-4.1,1.9-4.1,5.1c0,3.5,1.7,5.1,4.3,5.1,1.7,0,2.6-.5,3.6-1.5l-1-.9c-.8,.8-1.5,1.1-2.6,1.1-1.9,0-2.9-1.2-2.9-3.4h6.7v-.7h.1Zm-6.7-.4c0-.8,.1-1.1,.3-1.7,.4-.9,1.2-1.5,2.3-1.5s1.9,.6,2.3,1.5c.2,.5,.3,.9,.3,1.7h-5.2Z"/>
        <path class="cls-2" d="M190.23,59.7c-.6-.6-1.5-.9-2.5-.9-1.1,0-2.1,.4-2.8,1.2v-1.1h-1.4v9.9h1.4v-6.1c0-1.7,1-2.6,2.5-2.6s2.4,.9,2.4,2.6v6.1h1.5v-6.3c-.1-1.2-.4-2.1-1.1-2.8Z"/>
        <path class="cls-2" d="M198.53,60v-1.1h-2.1v-3h-1.5v3h-1.2v1.1h1.2v6.1c0,1.5,.8,2.7,2.5,2.7h1v-1.2h-.8c-.9,0-1.4-.5-1.4-1.5v-6.1h2.3Z"/>
        <path class="cls-2" d="M214.03,63.6c0-3-1.5-4.8-4.1-4.8s-4.1,1.9-4.1,5.1c0,3.5,1.7,5.1,4.3,5.1,1.7,0,2.6-.5,3.6-1.5l-1-.9c-.8,.8-1.4,1.1-2.6,1.1-1.9,0-2.9-1.2-2.9-3.4h6.7v-.7h.1Zm-6.7-.4c0-.8,.1-1.1,.3-1.7,.4-.9,1.2-1.5,2.3-1.5s1.9,.6,2.3,1.5c.2,.5,.3,.9,.3,1.7h-5.2Z"/>
        <path class="cls-2" d="M223.93,59.7c-.6-.6-1.5-.9-2.5-.9-1.1,0-2.1,.4-2.8,1.2v-1.1h-1.5v9.9h1.5v-6.1c0-1.7,1-2.6,2.5-2.6s2.4,.9,2.4,2.6v6.1h1.5v-6.3c-.1-1.2-.4-2.1-1.1-2.8Z"/>
        <path class="cls-2" d="M246.53,59.7c-.6-.6-1.5-.9-2.6-.9-1.4,0-2.5,.6-3.3,1.6-.6-1.1-1.7-1.6-3-1.6-1.1,0-2.1,.4-2.8,1.2v-1.1h-1.4v9.9h1.4v-6.1c0-1.7,1-2.6,2.5-2.6s2.4,.9,2.4,2.6v6.1h1.5v-6.3c0-1.6,1-2.5,2.5-2.5s2.4,.9,2.4,2.6v6.2h1.5v-6.3c0-1.2-.4-2.1-1.1-2.8Z"/>
        <path class="cls-2" d="M257.53,59.9c-.7-.7-1.6-1.1-2.8-1.1s-2.2,.4-2.8,1.1c-1,1-1.2,2.4-1.2,3.9s.2,2.9,1.2,4c.7,.7,1.6,1.1,2.8,1.1s2.2-.4,2.8-1.1c1-1,1.2-2.4,1.2-4,0-1.5-.2-2.9-1.2-3.9Zm-1,7c-.5,.5-1.1,.7-1.8,.7s-1.3-.2-1.8-.7c-.8-.7-.8-1.9-.8-3.1,0-1.1,.1-2.3,.8-3.1,.5-.5,1.1-.7,1.8-.7s1.3,.2,1.8,.7c.7,.7,.8,1.9,.8,3.1s-.1,2.4-.8,3.1Z"/>
        <path class="cls-2" d="M268.13,58.9v6.1c0,1.7-1,2.6-2.5,2.6s-2.4-.9-2.4-2.6v-6.1h-1.5v6.3c0,1.2,.3,2.1,1,2.8,.6,.6,1.5,.9,2.6,.9s2.1-.4,2.8-1.2v1.1h1.4v-9.9h-1.4Z"/>
        <path class="cls-2" d="M278.53,58.9l-2.7,8-2.7-8h-1.6l3.6,9.9h1.3l3.6-9.9h-1.5Z"/>
        <path class="cls-2" d="M289.53,63.6c0-3-1.5-4.8-4.1-4.8s-4.1,1.9-4.1,5.1c0,3.5,1.7,5.1,4.3,5.1,1.7,0,2.6-.5,3.6-1.5l-1-.9c-.8,.8-1.5,1.1-2.6,1.1-1.9,0-2.9-1.2-2.9-3.4h6.7v-.7h.1Zm-6.7-.4c0-.8,.1-1.1,.3-1.7,.4-.9,1.2-1.5,2.3-1.5s1.9,.6,2.3,1.5c.2,.5,.3,.9,.3,1.7h-5.2Z"/>
        <path class="cls-2" d="M305.73,59.7c-.6-.6-1.5-.9-2.6-.9-1.4,0-2.5,.6-3.3,1.6-.6-1.1-1.7-1.6-3-1.6-1.1,0-2.1,.4-2.8,1.2v-1.1h-1.4v9.9h1.4v-6.1c0-1.7,1-2.6,2.5-2.6s2.4,.9,2.4,2.6v6.1h1.5v-6.3c0-1.6,1-2.5,2.5-2.5s2.4,.9,2.4,2.6v6.2h1.5v-6.3c0-1.2-.4-2.1-1.1-2.8Z"/>
        <path class="cls-2" d="M317.93,63.6c0-3-1.5-4.8-4.1-4.8s-4.1,1.9-4.1,5.1c0,3.5,1.7,5.1,4.3,5.1,1.7,0,2.6-.5,3.6-1.5l-1-.9c-.8,.8-1.5,1.1-2.6,1.1-1.9,0-2.9-1.2-2.9-3.4h6.7v-.7h.1Zm-6.7-.4c0-.8,.1-1.1,.3-1.7,.4-.9,1.2-1.5,2.3-1.5s1.9,.6,2.3,1.5c.2,.5,.3,.9,.3,1.7h-5.2Z"/>
        <path class="cls-2" d="M327.83,59.7c-.6-.6-1.5-.9-2.5-.9-1.1,0-2.1,.4-2.8,1.2v-1.1h-1.5v9.9h1.5v-6.1c0-1.7,1-2.6,2.5-2.6s2.4,.9,2.4,2.6v6.1h1.5v-6.3c-.1-1.2-.4-2.1-1.1-2.8Z"/>
        <path class="cls-2" d="M336.13,60v-1.1h-2.1v-3h-1.5v3h-1.2v1.1h1.2v6.1c0,1.5,.9,2.7,2.5,2.7h1v-1.2h-.8c-.9,0-1.4-.5-1.4-1.5v-6.1h2.3Z"/>
      </g>
      <g>
        <g>
          <path class="cls-5" d="M61.33,40.2s3.6-1.1,1.8-7c-.8-2.7-2.9-5.3-3.6-6.7-1.4-2.7-.4-4.8,1.3-5.9,4.8-2.9,7.5,6.4,8.2,11,.5,3.9-7.7,8.6-7.7,8.6Z"/>
          <path class="cls-7" d="M61.33,40.7c-.2,0-.4-.1-.5-.3s0-.5,.2-.6c.3-.2,.6-.3,1-.6,.8-.7,1.7-2.4,.6-5.9-.5-1.8-1.7-3.7-2.6-5-.4-.6-.7-1.1-1-1.6-1.7-3.1-.2-5.5,1.5-6.5,1.2-.7,2.3-.8,3.4-.3,3.3,1.5,5,8.3,5.5,11.7,.5,3.3-4.6,7-6.9,8.4-.6,.5-1.1,.7-1.2,.7h0Zm1.2-20.1c-.5,0-1,.2-1.5,.5-.7,.4-2.8,2-1.1,5.2,.2,.4,.5,.9,.9,1.5,.9,1.4,2.1,3.3,2.7,5.3,.6,1.9,.7,3.5,.3,4.9,2.4-1.7,4.9-4.2,4.6-6.2-.5-3.7-2.3-9.6-5-10.9-.2-.2-.5-.3-.9-.3Z"/>
        </g>
        <g>
          <path class="cls-2" d="M54.43,23.5c2.4,3.8,.7,10.2-2.2,12-3,1.9-6.9,1.4-8.7-2.6-2.4-5.3-1.7-11,1.3-12.9,2.9-1.9,7.2-.3,9.6,3.5Z"/>
          <path class="cls-7" d="M48.73,37c-.6,0-1.1-.1-1.7-.2-1.7-.5-3.1-1.8-4-3.8-2.4-5.4-1.8-11.5,1.5-13.5,1.6-1,3.5-1.1,5.5-.4,1.9,.7,3.7,2.1,4.9,4.1,2.6,4.1,.8,10.7-2.4,12.7-1.2,.7-2.6,1.1-3.8,1.1Zm-1.2-17.3c-.9,0-1.8,.2-2.5,.7-2.8,1.8-3.3,7.4-1.1,12.2,.8,1.7,1.9,2.8,3.4,3.2s3.2,.2,4.6-.8c2.8-1.7,4.3-7.8,2.1-11.3h0c-1.1-1.7-2.7-3-4.4-3.7-.7-.2-1.4-.3-2.1-.3Z"/>
        </g>
        <g>
          <path class="cls-1" d="M4.43,53.9s-2.4-4.9-.8-7.5c2.3-3.7,8.4-1.6,8.6,4.6,.2,7.3,4.2,14,4.2,14l-1.7,1.3c-.1,0-7.8-6-10.3-12.4Z"/>
          <path class="cls-7" d="M14.63,66.8c-.1,0-.2,0-.3-.1-.3-.2-7.9-6.1-10.4-12.5-.2-.4-2.5-5.2-.8-8,1.1-1.7,2.9-2.4,4.9-1.9,2.2,.6,4.5,2.9,4.6,6.7,.2,7.1,4.1,13.7,4.1,13.7,.1,.2,.1,.5-.1,.7l-1.7,1.3s-.1,.1-.3,.1Zm-7.8-21.7c-1.2,0-2.2,.6-2.8,1.6-1.4,2.3,.8,7,.9,7h0c2.2,5.5,8.4,10.7,9.8,11.9l1.1-.8c-.8-1.5-3.8-7.4-4-13.8-.1-3.5-2.2-5.3-3.9-5.8-.5-.1-.8-.1-1.1-.1Z"/>
        </g>
        <g>
          <path class="cls-2" d="M4.43,53.9c3.2,6.3,10,14.4,20.5,17.8,0,0-1.5-1-2.1-4.1-.4-2.3,.8-3.4-.6-5.2-1.8-2.1-4-.8-6.6-1-4-.3-8.4-3.6-11.2-7.5Z"/>
          <path class="cls-7" d="M24.83,72.2h-.2c-12.7-4.2-19.1-14.9-20.7-18.1-.1-.2,0-.5,.2-.7,.2-.1,.5-.1,.7,.1,2.5,3.4,6.8,7,10.8,7.3,.8,.1,1.5,0,2.3-.1,1.6-.2,3.3-.4,4.7,1.3,1,1.2,.9,2.2,.7,3.3-.1,.6-.2,1.3,0,2.1,.5,2.8,1.8,3.8,1.8,3.8,.2,.1,.3,.4,.2,.6-.1,.3-.3,.4-.5,.4ZM7.53,58.1c2.9,4.1,8,9.5,15.8,12.5-.4-.7-.8-1.6-1-3-.2-1-.1-1.8,0-2.4,.1-1,.2-1.6-.5-2.5-1-1.3-2.2-1.1-3.8-.9-.8,.1-1.6,.2-2.5,.1-2.5-.2-5.4-1.6-8-3.8Z"/>
        </g>
        <g>
          <path class="cls-2" d="M43.73,2.3c-1.9-1.1-5.6-1.1-7.8-1.1C18.33,1.2,3.63,13.8,.53,30.6"/>
          <path class="cls-7" d="M.63,31.1s-.1,0,0,0c-.4-.1-.5-.3-.5-.6C3.33,13.2,18.43,.7,35.93,.7c2.2,0,6,0,8,1.2,.2,.1,.3,.4,.2,.7-.1,.2-.4,.3-.7,.2-1.8-1-5.5-1-7.5-1C18.83,1.8,4.13,14,1.03,30.7c0,.2-.2,.4-.4,.4Z"/>
        </g>
        <g>
          <ellipse class="cls-6" cx="22.22" cy="17.09" rx="26.1" ry="4.2" transform="translate(-5.77 15.57) rotate(-34.46)"/>
          <path class="cls-7" d="M1.73,32.8c-1.1,0-1.4-.4-1.5-.6-.3-.4-1.2-1.8,4.7-7.4,3.6-3.5,8.8-7.6,14.6-11.5h0c5.8-4,11.5-7.3,16-9.5,7.4-3.5,8.3-2.1,8.6-1.7,.3,.4,1.2,1.8-4.7,7.4-3.6,3.5-8.8,7.6-14.6,11.5-5.8,4-11.5,7.3-16,9.5-3.8,1.8-5.9,2.3-7.1,2.3ZM42.63,2.4c-1,0-3,.5-6.7,2.2-4.5,2.1-10.1,5.5-15.9,9.4h0c-5.7,3.9-10.9,8-14.5,11.4C1.33,29.4,.73,31.2,1.03,31.5c.3,.4,2.1,.4,7.4-2,4.5-2.1,10.1-5.5,15.9-9.4,5.7-3.9,10.9-8,14.5-11.4,4.2-4,4.8-5.8,4.5-6.1-.1-.1-.3-.2-.7-.2Z"/>
        </g>
        <g>
          <ellipse class="cls-2" cx="21.05" cy="37.1" rx="18.5" ry="17" transform="translate(-16.87 56.62) rotate(-87.68)"/>
          <path class="cls-7" d="M20.93,56.1h-.7c-4.7-.2-9-2.3-12.1-6.1-3.1-3.7-4.8-8.5-4.6-13.6s2.2-9.7,5.6-13.2c3.4-3.5,7.9-5.3,12.6-5.1,9.7,.4,17.2,9.2,16.8,19.7h0c-.4,10.2-8.3,18.3-17.6,18.3Zm.2-37c-4.2,0-8.1,1.7-11.2,4.8-3.3,3.3-5.2,7.7-5.4,12.5-.2,4.8,1.4,9.4,4.4,12.9s7,5.5,11.4,5.7c9.1,.4,16.8-7.4,17.2-17.3s-6.7-18.3-15.7-18.6c-.3,0-.5,0-.7,0Z"/>
        </g>
        <g>
          <path class="cls-5" d="M52.33,18c-.2-1.3-.6-2.5-1.2-3.7h0c-.1-.2-.3-.6-.3-.7-1.9-3.4,.2-6.2,.2-6.2,0,0-3.4,.9-9-.7-1.6-.4-3-.7-4.3-.8h-.3c-.4,0-1.5-.1-1.7-.1-1.9,.1-3.4,.3-3.4,.3-6.3,1.1-11.2,5.4-11.7,11-.6,7,6,13.4,14.8,14.2s16.3-4.2,16.9-11.2c0,0,.1-.5,0-1.3,.1,0,0-.5,0-.8Z"/>
          <path class="cls-7" d="M37.43,31.9c-.6,0-1.3,0-2-.1-9-.9-15.9-7.5-15.3-14.7,.5-5.6,5.3-10.2,12.1-11.4,.1,0,1.6-.3,3.5-.3,.2,0,1.3,0,1.7,.1h.3c1.5,.1,3,.4,4.4,.8,5.3,1.5,8.7,.7,8.7,.7,.2-.1,.4,0,.5,.2s.1,.4,0,.6c-.1,.1-1.8,2.6-.1,5.6,0,0,.3,.5,.4,.7,.6,1.3,1,2.6,1.2,3.9,0,.3,.1,.9,.1,.9v1.4c-.2,3-1.8,5.8-4.3,7.9-3,2.3-7,3.7-11.2,3.7Zm-1.6-25.6h0c-1.9,.1-3.4,.3-3.4,.3-6.3,1.1-10.8,5.3-11.2,10.5-.6,6.7,5.8,12.9,14.3,13.7,4.7,.4,9.2-.8,12.4-3.5,2.3-2,3.7-4.5,3.9-7.2,0,0,.1-.5,0-1.2,0-.1,0-.6-.1-.8h0c-.1-1.2-.5-2.4-1.1-3.5-.1-.2-.3-.6-.3-.7-1.4-2.4-.9-4.6-.3-5.8-1.4,.2-4.3,.2-8.2-.9-1.4-.4-2.8-.7-4.2-.8h-.3c-.3,0-1.3-.1-1.5-.1Z"/>
        </g>
        <g>
          <path class="cls-3" d="M66.53,23.5h0c.3,1.2,8,22.4-25.7,18.8-8.6-.9-16,5.7-16,14.4s9.1,17.9,19.7,16.5c16.6-2.2,26.5-13.6,26.5-34.4,0-5.4-1.8-10.6-4.5-15.3h0"/>
          <path class="cls-7" d="M42.43,73.8c-4.3,0-8.5-1.6-11.9-4.6-3.8-3.3-6.1-8-6.1-12.4s1.8-8.3,4.9-11.2c3.1-2.8,7.4-4.2,11.6-3.8,11.9,1.2,19.8-.4,23.6-5,2.6-3.2,3.2-7.6,1.6-12.9,0-.1-.1-.2-.1-.2v-.2c0-.3,.2-.5,.5-.5,.2,0,.4,.1,.5,.3,3,5.3,4.5,10.5,4.5,15.6,0,20.2-9.6,32.5-26.9,34.8-.8,.1-1.5,.1-2.2,.1Zm-3.1-31c-3.5,0-6.8,1.3-9.4,3.6-3,2.7-4.6,6.4-4.6,10.4,0,4.2,2.2,8.5,5.8,11.7,3.8,3.3,8.6,4.8,13.3,4.2,17.1-2.3,26.1-14,26.1-33.8,0-3.8-.9-7.7-2.6-11.6,.5,4.1-.4,7.6-2.6,10.2-4,4.8-12.3,6.6-24.5,5.4-.5-.1-1-.1-1.5-.1Z"/>
        </g>
      </g>
      <path class="cls-7" d="M43.43,70.7c-2.3,0-3.7-.4-3.8-.5-.3-.1-.4-.4-.3-.6s.4-.4,.6-.3c.1,0,9.6,3,21.5-7.7,.2-.2,.5-.2,.7,0s.2,.5,0,.7c-7.9,7.1-14.7,8.4-18.7,8.4Z"/>
      <path class="cls-4" d="M29.33,53.4h0c-.4-.1-.5-.3-.5-.6,0-.1,1.5-7,9.1-7.3,.3,0,.5,.2,.5,.5s-.2,.5-.5,.5c-6.7,.3-8,6.3-8.1,6.5,0,.2-.2,.4-.5,.4Z"/>
      <path class="cls-7" d="M17.93,52.6h0c-8-.5-10.4-7.7-10.4-7.8-.1-.3,.1-.5,.3-.6,.3-.1,.5,.1,.6,.3,.1,.3,2.2,6.6,9.5,7.1,.3,0,.5,.3,.5,.5,0,.3-.2,.5-.5,.5Z"/>
      <path class="cls-4" d="M24.13,18.4c-.2,0-.4-.2-.5-.4,0-.1-1.5-6.4,7.1-9.5,.3-.1,.5,0,.6,.3s0,.5-.3,.6c-7.7,2.8-6.5,8.1-6.5,8.3,.1,.3-.1,.5-.4,.6v.1Z"/>
      <path class="cls-4" d="M37.33,28c-3.9,0-6.9-1.4-7-1.4-.2-.1-.4-.4-.2-.7,.1-.2,.4-.4,.7-.2,.1,0,9.2,4.2,16.1-2.5,.2-.2,.5-.2,.7,0s.2,.5,0,.7c-3.4,3.2-7.2,4.1-10.3,4.1Z"/>
      <path class="cls-7" d="M63.83,30.3c-.2,0-.4-.1-.5-.3-.9-2.6-2.1-3.9-2.1-3.9-.2-.2-.2-.5,0-.7s.5-.2,.7,0c.1,.1,1.3,1.4,2.3,4.2,.1,.3,0,.5-.3,.6q0,.1-.1,.1Z"/>
      <path class="cls-7" d="M10.63,28c-.1,0-.2,0-.2-.1-.2-.1-.3-.4-.2-.7,.1-.2,2.9-5.5,10.6-6.3,.3,0,.5,.2,.6,.4,0,.3-.2,.5-.4,.6-7.2,.8-9.8,5.7-9.8,5.8-.2,.2-.4,.3-.6,.3Z"/>
      <path class="cls-4" d="M17.53,9.6c-.1,0-.3-.1-.4-.2-.2-.1-.2-.5,0-.6,.2-.2,5-4.1,12.9-5.5,.3,0,.5,.1,.6,.4,0,.3-.1,.5-.4,.6-7.6,1.3-12.3,5.2-12.4,5.3h-.3Z"/>
    </g>
  </g>
</svg>